<?xml version="1.0" encoding="UTF-8" standalone="no"?>
<!-- Created with Inkscape (http://www.inkscape.org/) -->

<svg
   width="183.54521mm"
   height="75.155556mm"
   viewBox="0 0 183.54521 75.155556"
   version="1.1"
   id="svg1169"
   inkscape:version="1.2.2 (b0a84865, 2022-12-01)"
   sodipodi:docname="logo.svg"
   xmlns:inkscape="http://www.inkscape.org/namespaces/inkscape"
   xmlns:sodipodi="http://sodipodi.sourceforge.net/DTD/sodipodi-0.dtd"
   xmlns="http://www.w3.org/2000/svg"
   xmlns:svg="http://www.w3.org/2000/svg">
  <sodipodi:namedview
     id="namedview1171"
     pagecolor="#ffffff"
     bordercolor="#000000"
     borderopacity="0.25"
     inkscape:showpageshadow="2"
     inkscape:pageopacity="0.0"
     inkscape:pagecheckerboard="0"
     inkscape:deskcolor="#d1d1d1"
     inkscape:document-units="mm"
     showgrid="false"
     inkscape:zoom="0.84552265"
     inkscape:cx="332.93017"
     inkscape:cy="379.64684"
     inkscape:window-width="1800"
     inkscape:window-height="1126"
     inkscape:window-x="0"
     inkscape:window-y="43"
     inkscape:window-maximized="0"
     inkscape:current-layer="layer1" />
  <defs
     id="defs1166" />
  <g
     inkscape:label="Ebene 1"
     inkscape:groupmode="layer"
     id="layer1"
     transform="translate(-13.947633,-3.7724398)">
    <path
       fill="#9c2c46"
       opacity="1"
       stroke="none"
       d="m 171.7966,37.450796 c -1e-5,4.869061 -1e-5,9.645521 -1e-5,14.487601 -1.63717,0 -3.19105,0 -4.81751,0 -0.0171,-0.337662 -0.0454,-0.635686 -0.0454,-0.933716 -0.003,-11.85152 0.008,-23.703064 -0.0237,-35.5545 -0.002,-0.907129 0.25984,-1.1683 1.13797,-1.109445 1.10611,0.07414 2.2232,0.06047 3.33123,0.0024 0.69605,-0.0365 1.11357,0.179893 1.50585,0.776864 4.86235,7.399406 9.75288,14.780304 14.63877,22.164246 1.63112,2.465057 3.26966,4.925204 5.08758,7.356102 0,-10.050389 0,-20.100778 0,-30.216548 1.65669,0 3.1808,0 4.76135,0 0,12.509204 0,24.990873 0,37.57852 -1.71264,0 -3.40415,0.02466 -5.09337,-0.02622 -0.2576,-0.0078 -0.57812,-0.316274 -0.74589,-0.568076 -4.82419,-7.240223 -9.63268,-14.490909 -14.4435,-21.740023 -1.62055,-2.441882 -3.24026,-4.884321 -4.86192,-7.325469 -0.0795,-0.119611 -0.1738,-0.229325 -0.43134,-0.566161 0,5.375775 0,10.478807 -3e-5,15.674447 z"
       id="path4"
       style="fill:#ffffff;stroke-width:0.185208" />
    <path
       fill="#9b2b45"
       opacity="1"
       stroke="none"
       d="m 107.07929,17.114656 c 3.06996,-2.690751 6.70027,-3.560335 10.59371,-3.605678 3.45553,-0.04024 6.77871,0.513188 9.67703,2.561174 3.11589,2.201721 4.40231,5.362563 4.59716,9.060931 0.003,0.0509 -0.0547,0.104965 -0.13944,0.256886 -1.38578,0 -2.82854,0.02999 -4.26682,-0.03669 -0.18677,-0.0087 -0.45199,-0.496514 -0.50885,-0.795159 -0.49064,-2.577031 -1.70521,-4.678699 -4.15551,-5.76793 -3.50197,-1.556727 -7.09458,-1.543819 -10.59148,0.01876 -2.40088,1.072821 -3.57807,3.531678 -3.14236,6.122343 0.23161,1.377166 1.06766,2.331154 2.24021,3.017259 2.22638,1.302724 4.74766,1.673318 7.19374,2.30038 2.95129,0.75657 5.97847,1.357251 8.79323,2.476826 5.6854,2.261369 7.84474,8.068067 5.22492,13.409226 -1.24525,2.53878 -3.34536,4.209013 -5.91628,5.196251 -6.05838,2.32639 -12.10867,2.32257 -17.88722,-0.808975 -4.17405,-2.262015 -5.93727,-6.063793 -6.01558,-10.894901 1.52912,0 2.99402,-0.0108 4.4581,0.01891 0.12783,0.0026 0.3566,0.269141 0.35982,0.416971 0.11419,5.252612 4.50402,7.932097 8.85685,8.456805 3.01849,0.363854 5.99606,0.231929 8.76892,-1.161475 2.95424,-1.484545 4.15772,-5.212042 2.65529,-7.981472 -0.71601,-1.319772 -1.87591,-2.183341 -3.22922,-2.636653 -2.21508,-0.741974 -4.49224,-1.30032 -6.74789,-1.91904 -2.61362,-0.716906 -5.31263,-1.204015 -7.83328,-2.162492 -6.83704,-2.599781 -8.29693,-10.350835 -2.98505,-15.542253 z"
       id="path6"
       style="fill:#ffffff;stroke-width:0.185208" />
    <path
       fill="#9c2c46"
       opacity="1"
       stroke="none"
       d="m 44.432998,40.045638 c 0.145432,0.657222 0.255213,1.324794 0.442442,1.969884 0.827505,2.851105 2.570785,4.895053 5.408501,5.881124 2.944102,1.02305 5.939423,1.095663 8.909348,0.137953 3.516268,-1.133896 5.664904,-4.275966 5.788902,-8.518271 0.09011,-3.082748 0.04452,-6.169639 0.04802,-9.254699 0.0056,-4.905485 0.0014,-9.810982 0.0014,-14.716475 0,-0.337156 7e-6,-0.674311 7e-6,-1.099775 1.693216,0 3.334268,0 5.071759,0 0.01687,0.287824 0.04914,0.582351 0.04928,0.87689 0.0028,7.589631 0.0063,15.179265 -3.71e-4,22.768889 -0.0021,2.676625 -0.32746,5.299238 -1.520526,7.73988 -1.803067,3.688511 -4.886105,5.727618 -8.790572,6.567491 -3.862215,0.830787 -7.732095,0.722007 -11.532577,-0.406956 -5.316668,-1.579353 -8.296827,-5.425678 -8.876546,-11.383149 -0.08056,-0.827902 -0.1225,-1.662897 -0.123522,-2.494678 -0.0094,-7.651323 -0.0063,-15.302664 -0.0042,-22.953998 4.9e-5,-0.213024 0.02317,-0.426042 0.04396,-0.784174 1.542219,0 3.069577,0 4.662014,0.121556 0.06307,8.294188 0.05712,16.466828 0.07435,24.63942 5.6e-4,0.303273 0.227234,0.60607 0.34853,0.909088 z"
       id="path8"
       style="fill:#ffffff;stroke-width:0.185208" />
    <path
       fill="#9c2b44"
       opacity="1"
       stroke="none"
       d="m 142.00553,47.645813 c 0.3603,0.05059 0.72054,0.144761 1.08092,0.145287 6.45083,0.0094 12.90166,0.0074 19.35251,0.0079 0.33503,2.4e-5 0.67006,7e-6 1.08068,7e-6 0,1.395261 0,2.73197 0,4.135913 -8.80963,0 -17.6194,0 -26.49981,0 0,-12.487032 0,-24.965294 0,-37.509714 8.77275,0 17.52165,0 26.34789,0 0,1.357943 0,2.722864 0,4.162023 -0.3721,0 -0.7077,-1.1e-5 -1.0433,4e-6 -6.38911,1.85e-4 -12.7782,-5.56e-4 -19.16732,0.0036 -0.33618,1.84e-4 -0.67237,0.04278 -1.1374,0.08814 -0.20131,0.09032 -0.33702,0.157968 -0.3372,0.225982 -0.0101,3.762457 -0.0108,7.524955 0.006,11.28737 3.7e-4,0.07784 0.21171,0.15477 0.32465,0.232125 0.0557,0.03129 0.11142,0.06259 0.17502,0.196007 0.15665,0.184217 0.30532,0.337878 0.45416,0.338039 5.13585,0.0055 10.27173,-0.0035 15.40759,-0.01041 0.0222,1.044405 0.0136,2.090693 0.0774,3.132552 0.0426,0.694547 -0.3309,0.71868 -0.85608,0.716266 -3.23533,-0.01485 -6.47075,-0.01207 -9.70613,-0.0068 -1.78629,0.0029 -3.57254,0.02213 -5.51692,0.07074 -0.2296,0.222676 -0.36289,0.408425 -0.36348,0.594591 -0.0122,3.843184 -0.0148,7.686442 0.005,11.529561 0.001,0.220765 0.20638,0.4405 0.31663,0.660718 z"
       id="path10"
       style="fill:#ffffff;stroke-width:0.185208" />
    <path
       fill="#9c2c45"
       opacity="1"
       stroke="none"
       d="m 26.660719,47.798215 c 3.887772,6e-6 7.683032,0.01304 11.478019,-0.01343 0.597821,-0.0042 0.87479,0.176787 1.034306,0.758888 0.300846,1.097837 0.685272,2.172765 1.068494,3.361235 -8.72074,0 -17.389141,0 -26.116937,0 0,-12.479981 0,-24.954836 0,-37.541232 1.572032,0 3.106348,-0.01018 4.639985,0.01752 0.136486,0.0025 0.338289,0.230586 0.385903,0.39073 0.06755,0.227217 0.02149,0.488648 0.02149,0.735457 -2.8e-4,10.367297 -7e-4,20.734594 -0.0014,31.101891 -2.1e-5,0.361007 0,0.722009 0,1.188936 2.539558,0 4.968523,0 7.490091,-5e-6 z"
       id="path12"
       style="fill:#ffffff;stroke-width:0.185208" />
    <path
       fill="#9b2a44"
       opacity="1"
       stroke="none"
       d="m 89.43562,51.948125 c -1.537529,0 -3.075051,0 -4.762037,0 0,-15.932636 0,-31.830258 0.111153,-47.7951242 0.511119,-0.06063 0.911631,-0.06516 1.310939,-0.04534 1.22059,0.06056 2.440725,0.130481 3.661035,0.19676 0.01519,0.183495 0.04361,0.36699 0.04361,0.550484 -7e-4,15.4372782 -0.0035,30.8745542 -0.08579,46.4146182 -0.145698,0.294724 -0.212289,0.486663 -0.27888,0.678603 z"
       id="path14"
       style="fill:#ffffff;stroke-width:0.185208" />
    <path
       fill="#d5ac25"
       opacity="1"
       stroke="none"
       d="m 81.153619,38.56203 c 2.1e-5,4.46979 2.1e-5,8.846975 2.1e-5,13.316342 -1.690276,0 -3.326792,0 -5.021856,0 0,-14.843509 0,-29.658449 0,-44.5830052 1.55911,0 3.062465,-0.0131 4.564812,0.01979 0.154343,0.0034 0.372855,0.257362 0.435806,0.438718 0.07652,0.220452 0.02023,0.487231 0.0203,0.733969 3.71e-4,9.9938612 5.6e-4,19.9877232 7e-4,30.0741892 z"
       id="path16"
       style="fill:#ffffff;stroke-width:0.185208" />
    <path
       fill="#037caa"
       opacity="1"
       stroke="none"
       d="m 93.374128,9.3267168 c 0.107282,-0.07618 0.213941,-0.217657 0.321944,-0.218697 1.508622,-0.01451 3.017432,-0.0098 4.602912,-0.0098 0,14.2916772 0,28.5254502 0,42.8699912 -1.48317,0 -2.95309,0 -4.50753,-0.111228 -0.08478,-3.598935 -0.08524,-7.086642 -0.08529,-10.57435 -1.33e-4,-10.308793 0.0028,-20.617594 -0.01407,-30.926361 -5.53e-4,-0.343349 -0.207305,-0.6863532 -0.31794,-1.0295172 z"
       id="path18"
       style="fill:#ffffff;stroke-width:0.185208" />
    <path
       fill="#9e2f49"
       opacity="1"
       stroke="none"
       d="m 57.795445,62.632052 c -0.212702,-0.674736 -0.338422,-1.414252 -1.241072,-1.708144 0.232701,-0.177093 0.507619,-0.312823 0.785771,-0.319803 1.047074,-0.02629 2.095653,0.0064 3.142608,-0.02204 0.280308,-0.0076 0.55685,-0.153738 0.835121,-0.236276 0.63322,1.655641 1.292984,3.301702 1.893892,4.968983 1.105804,3.06817 2.176069,6.149136 3.265178,9.223339 0.05747,0.16226 0.152348,0.31127 0.304227,0.61556 0.942781,-2.63132 1.826832,-5.119233 2.725744,-7.60179 0.868399,-2.398263 1.752086,-4.790974 2.683716,-7.123039 0.08558,0.111538 0.116067,0.202092 0.147483,0.202407 1.802185,0.01821 3.604447,0.03263 5.406646,0.02649 0.07034,-1.86e-4 0.14,-0.204329 0.209972,-0.313438 0.439649,0.382287 0.197757,0.514206 -0.213409,0.607743 -1.689107,0.384237 -1.897294,0.618155 -1.903118,2.341053 -0.01351,4.010713 -0.0063,8.021489 -0.0042,12.032234 1.19e-4,0.27728 0.01113,0.55592 0.03976,0.83157 0.113855,1.09572 0.452655,1.42941 1.524992,1.64493 0.268688,0.054 0.503503,0.27659 0.753879,0.42169 -0.279839,0.10407 -0.558488,0.29443 -0.839713,0.29829 -1.943263,0.0267 -3.887219,0.026 -5.830524,7e-4 -0.251391,-0.004 -0.50036,-0.196 -0.750449,-0.30097 0.223307,-0.14212 0.430633,-0.36469 0.67263,-0.41277 1.219211,-0.24227 1.573992,-0.53785 1.584317,-1.76325 0.0364,-4.318684 0.02345,-8.637796 0.02583,-12.956747 2.1e-5,-0.05201 -0.04445,-0.104013 -0.140637,-0.315178 -0.150948,0.41462 -0.261443,0.71303 -0.368403,1.0127 -1.647758,4.616514 -3.310069,9.227925 -4.926341,13.855445 -0.244132,0.69897 -0.567413,0.92539 -1.314656,0.92737 -0.754768,0.002 -1.054669,-0.23928 -1.297303,-0.93764 -1.649193,-4.74672 -3.3488,-9.475929 -5.033308,-14.210379 -0.05873,-0.165081 -0.129864,-0.325759 -0.295092,-0.737189 -0.07013,0.431555 -0.125307,0.613401 -0.125468,0.795303 -0.0035,3.918152 -0.0014,7.836318 0.0021,11.754475 1.82e-4,0.2774 0.0093,0.55552 0.03045,0.83206 0.09505,1.24239 0.382515,1.53393 1.59698,1.75437 0.243943,0.0443 0.457401,0.25655 0.684915,0.39135 -0.24773,0.10771 -0.493927,0.30442 -0.743435,0.3087 -1.634626,0.0281 -3.270183,0.0278 -4.90483,7e-4 -0.252959,-0.004 -0.502859,-0.19355 -0.754166,-0.29729 0.219506,-0.13917 0.430031,-0.37957 0.660058,-0.39994 0.976871,-0.0866 1.536262,-0.56024 1.731765,-1.5868 0.175126,-0.13105 0.320782,-0.22352 0.321013,-0.31634 0.01113,-4.490286 0.0097,-8.980604 0.0097,-13.534795 -0.165725,0.115739 -0.259042,0.180908 -0.352366,0.246081 z"
       id="path20"
       style="fill:#ffffff;stroke-width:0.185208" />
    <path
       fill="#9e2f49"
       opacity="1"
       stroke="none"
       d="m 179.06333,75.982911 c 0.11712,1.16955 0.66863,1.87159 1.93658,1.86176 0.136,-0.001 0.27378,0.22938 0.41075,0.35241 -0.14712,0.11261 -0.29307,0.32135 -0.44153,0.32317 -1.81633,0.0223 -3.63318,0.0244 -5.44939,-0.003 -0.16949,-0.003 -0.3355,-0.23926 -0.50312,-0.36724 0.15662,-0.11044 0.29942,-0.28345 0.47202,-0.32161 1.59618,-0.35292 1.82876,-0.55104 1.84161,-2.1898 0.0328,-4.187181 0.0337,-8.375071 -0.016,-12.561932 -0.007,-0.596642 -0.36657,-1.189096 -0.63615,-1.88899 -0.15083,-0.125218 -0.2285,-0.144915 -0.30615,-0.164619 -0.14836,-0.01439 -0.29673,-0.02878 -0.44126,-0.140077 0.29174,-0.161214 0.57911,-0.277813 0.86772,-0.281005 1.43521,-0.01586 2.87077,-0.0018 4.30621,0.0017 1.70633,4.772861 3.41266,9.54572 5.20442,14.557513 0.20535,-0.48694 0.34138,-0.77099 0.44706,-1.06592 1.58935,-4.435327 3.17429,-8.872235 4.76297,-13.307798 0.0508,-0.141659 0.13052,-0.272907 0.27479,-0.35718 0.13677,0.113496 0.19592,0.229358 0.25419,0.228918 1.49378,-0.01115 2.98779,-0.02338 4.48084,-0.06703 0.23462,-0.0069 0.46479,-0.165652 0.69701,-0.254198 0.39328,0.349695 0.24454,0.509521 -0.1907,0.636648 -1.31479,0.384044 -1.58036,0.631951 -1.59211,1.97116 -0.0377,4.289579 -0.0377,8.579865 -0.004,12.86948 0.0106,1.32661 0.27161,1.54226 1.57482,1.99893 0.19537,0.0685 0.32102,0.3359 0.47894,0.51128 -0.0481,0.0695 -0.0962,0.13896 -0.14436,0.20845 -2.18679,0 -4.37362,0.006 -6.56024,-0.0132 -0.15982,-0.001 -0.31793,-0.19202 -0.47682,-0.29465 0.16017,-0.13594 0.3021,-0.35479 0.48339,-0.39467 1.43872,-0.31646 1.79108,-0.5676 1.80075,-1.76484 0.0353,-4.378184 0.0139,-8.75681 -0.10724,-13.182669 -0.0962,0.197929 -0.21206,0.388812 -0.28574,0.594794 -1.70325,4.76182 -3.42106,9.518635 -5.08005,14.295855 -0.24009,0.69137 -0.60846,0.77129 -1.21952,0.77865 -0.64526,0.008 -1.04931,-0.0731 -1.3022,-0.80284 -1.64597,-4.74955 -3.34855,-9.479486 -5.04013,-14.213145 -0.0898,-0.251237 -0.24815,-0.477974 -0.51479,-0.692534 -0.20385,0.338712 -0.32168,0.653656 -0.32287,0.969034 -0.0132,3.517885 -0.008,7.035833 -0.008,10.553755 0,0.66089 0,1.32178 0,2.10801 0.17802,-0.2521 0.26299,-0.37243 0.34793,-0.49275 z"
       id="path22"
       style="fill:#ffffff;stroke-width:0.185208" />
    <path
       fill="#9f314a"
       opacity="1"
       stroke="none"
       d="m 99.673774,60.350867 c -0.0589,0.199684 -0.0747,0.545378 -0.18306,0.577336 -1.86732,0.550768 -1.9399,0.613456 -1.94403,2.571088 -0.01,4.657149 -0.004,9.31432 -0.004,13.97148 -10e-6,0.3046 0,0.60919 0,1.06467 -0.82002,0 -1.58656,0.0777 -2.32279,-0.0379 -0.29865,-0.0468 -0.5965,-0.4763 -0.784128,-0.79647 -2.649654,-4.52141 -5.279715,-9.054332 -7.91693,-13.583059 -0.146881,-0.252217 -0.314727,-0.492233 -0.595861,-0.929187 -0.0469,0.444017 -0.09103,0.66801 -0.09124,0.892038 -0.0035,3.701047 -0.0021,7.402108 0.0014,11.103158 3.71e-4,0.30781 0.01351,0.61735 0.0476,0.92307 0.134036,1.20059 0.408394,1.47263 1.566201,1.70029 0.252028,0.0496 0.474908,0.24728 0.711221,0.37676 -0.237958,0.11776 -0.474166,0.33327 -0.714154,0.33756 -1.664929,0.0298 -3.330817,0.0269 -4.995921,0.002 -0.227108,-0.004 -0.451591,-0.18508 -0.677292,-0.28423 0.212751,-0.14507 0.40894,-0.37626 0.641004,-0.4209 1.272236,-0.24476 1.645763,-0.59107 1.653316,-1.91135 0.02485,-4.348498 0.02576,-8.697346 -0.0028,-13.045815 -0.0088,-1.339334 -0.396823,-1.699787 -1.767514,-2.015445 1.235227,-0.147459 2.489991,-0.181139 3.742697,-0.251338 0.345884,-0.01938 0.685671,-0.147515 1.028258,-0.225756 0.592613,0.919976 1.218231,1.82056 1.771994,2.763354 2.136211,3.636941 4.248769,7.28777 6.373219,10.93164 0.11632,0.19953 0.26046,0.38284 0.56278,0.54228 0,-0.25692 1.7e-4,-0.51382 -2e-5,-0.77073 -0.003,-3.604168 0.0115,-7.208482 -0.0161,-10.812453 -0.0115,-1.49568 -0.37979,-1.87812 -1.793765,-2.179078 0.273343,-0.145237 0.566475,-0.230379 0.860531,-0.233663 1.311524,-0.01469 2.623644,0.0096 3.934794,-0.01732 0.30615,-0.0063 0.60932,-0.157774 0.91387,-0.242453 z"
       id="path24"
       style="fill:#ffffff;stroke-width:0.185208" />
    <path
       fill="#9e2f48"
       opacity="1"
       stroke="none"
       d="m 17.395484,72.215131 c 0.08217,0.41194 0.146951,0.74496 0.221319,1.07583 0.945364,4.20624 4.58619,4.6439 7.300587,3.84898 0.220563,-0.0646 0.483035,-0.46305 0.487928,-0.71105 0.03647,-1.85012 0.04536,-3.70226 -0.0028,-5.552069 -0.03542,-1.366918 -0.321671,-1.634332 -1.625435,-1.919015 -0.186963,-0.04081 -0.338583,-0.243495 -0.506555,-0.371273 0.175574,-0.117026 0.350028,-0.333879 0.52689,-0.335846 2.097529,-0.02345 4.19552,-0.02338 6.293049,1.82e-4 0.182119,0.0021 0.361865,0.215173 0.54271,0.330267 -0.166684,0.131376 -0.316428,0.341411 -0.502754,0.381521 -1.339583,0.288386 -1.602321,0.523341 -1.634381,1.898484 -0.04676,2.004189 -0.0441,4.010379 -0.01337,6.014979 0.0091,0.59243 -0.175805,0.86424 -0.747362,1.05064 -2.325582,0.75849 -4.711448,1.01317 -7.126161,0.79196 -3.324433,-0.30446 -5.523679,-2.33918 -6.276137,-5.96025 -0.549129,-2.642605 -0.530103,-5.340181 0.177842,-7.976388 0.73521,-2.737752 2.579031,-4.268326 5.363862,-4.67004 2.354632,-0.339657 4.672682,-0.06834 6.97529,0.458613 0.500143,0.114455 0.734881,0.32807 0.720811,0.870396 -0.03031,1.16872 -0.0093,2.338778 -0.0093,3.592863 -0.468216,0.287637 -0.694617,-0.0081 -0.906682,-0.513156 -0.947086,-2.255509 -2.390598,-3.206677 -4.786957,-3.197672 -1.937985,0.0073 -3.27516,0.836146 -3.889732,2.674835 -0.385987,1.154804 -0.614866,2.39624 -0.688856,3.612518 -0.0913,1.500821 0.05145,3.01588 0.105987,4.604691 z"
       id="path26"
       style="fill:#ffffff;stroke-width:0.185208" />
    <path
       fill="#9e2f48"
       opacity="1"
       stroke="none"
       d="m 117.46373,72.194521 c 0.50095,1.30346 0.9738,2.54078 1.45856,3.77343 0.43237,1.0994 1.19847,1.75705 2.41843,1.85295 0.21698,0.0171 0.41881,0.22678 0.62764,0.34755 -0.23025,0.12232 -0.45921,0.34799 -0.69094,0.35086 -2.15795,0.0267 -4.31646,0.0239 -6.47452,0.002 -0.2235,-0.002 -0.44515,-0.18558 -0.66765,-0.28489 0.21584,-0.14266 0.4166,-0.37367 0.64999,-0.41347 1.37557,-0.23453 1.61694,-0.59802 1.16689,-1.94551 -0.26338,-0.7886 -0.52163,-1.58598 -0.88091,-2.33185 -0.13494,-0.28015 -0.54428,-0.59699 -0.83667,-0.60514 -1.94096,-0.054 -3.88483,-0.0542 -5.82591,-0.003 -0.29825,0.008 -0.7222,0.30819 -0.85435,0.58485 -0.36989,0.77433 -0.64365,1.59871 -0.9069,2.41888 -0.38308,1.19348 -0.0797,1.63995 1.13419,1.87321 0.26388,0.0507 0.49309,0.2818 0.73827,0.42981 -0.2561,0.0977 -0.51108,0.27633 -0.76848,0.2799 -1.75708,0.0244 -3.51485,0.0232 -5.27188,-0.003 -0.21302,-0.004 -0.42298,-0.20825 -0.63435,-0.31976 0.198,-0.13395 0.38582,-0.3639 0.59564,-0.38611 1.25779,-0.13315 2.01072,-0.86766 2.43603,-1.98572 1.7305,-4.549212 3.44803,-9.103363 5.16988,-13.655866 0.0654,-0.172893 0.12354,-0.348544 0.18961,-0.521171 0.55619,-1.453111 0.93046,-1.683842 2.4453,-1.375339 0.22907,0.04666 0.49332,0.344332 0.58365,0.585051 1.40718,3.749059 2.78838,7.507877 4.19848,11.332625 m -8.90917,-1.444426 c -0.0768,0.255164 -0.15355,0.510328 -0.2467,0.81991 2.04969,0 4.02048,0 6.07803,0 -1.00408,-2.722097 -1.97196,-5.346019 -3.02966,-8.213457 -0.98798,2.604217 -1.87008,4.929309 -2.80167,7.393547 z"
       id="path28"
       style="fill:#ffffff;stroke-width:0.185208" />
    <path
       fill="#9d2e48"
       opacity="1"
       stroke="none"
       d="m 125.51396,62.805211 c 1.065,-1.987654 2.88781,-2.565639 4.84856,-2.640056 1.61975,-0.06147 3.25319,0.176465 4.87609,0.329327 0.22888,0.02155 0.61124,0.306032 0.61877,0.481825 0.0538,1.255238 0.0287,2.513849 0.0287,4.065357 -0.32056,-0.307027 -0.64931,-0.475265 -0.73465,-0.726264 -0.88582,-2.605285 -3.26141,-3.650355 -5.73711,-2.489926 -1.51138,0.708431 -1.96906,2.311034 -0.91765,3.598544 0.53278,0.652407 1.24454,1.197077 1.96379,1.650117 1.19776,0.754446 2.49792,1.345876 3.6988,2.095884 2.25823,1.410388 3.12084,3.286922 2.69205,5.598822 -0.39232,2.11533 -1.7945,3.2413 -3.75301,3.75289 -2.53911,0.66324 -5.07944,0.45656 -7.58876,-0.20292 -0.25179,-0.0662 -0.60589,-0.39952 -0.61572,-0.62199 -0.0582,-1.31715 -0.0287,-2.63817 -0.0287,-3.9934 0.62331,-0.27009 0.73312,0.17958 0.88303,0.64595 0.84592,2.63179 2.93543,3.78189 5.63006,3.08912 1.09895,-0.28252 2.01137,-0.84336 2.31672,-2.02237 0.3121,-1.20512 0.0237,-2.31446 -0.94027,-3.09919 -0.87811,-0.714804 -1.87955,-1.278143 -2.82681,-1.907961 -1.07487,-0.714658 -2.23554,-1.329657 -3.20586,-2.165604 -1.66385,-1.433418 -2.02524,-3.30981 -1.20801,-5.438155 z"
       id="path30"
       style="fill:#ffffff;stroke-width:0.185208" />
    <path
       fill="#9e2f49"
       opacity="1"
       stroke="none"
       d="m 171.15431,60.608688 c -0.16986,0.116434 -0.33473,0.324614 -0.5104,0.334164 -1.02091,0.05553 -1.59084,0.560158 -1.78691,1.601425 -0.14915,-0.0099 -0.21762,-0.04465 -0.2861,-0.0794 -0.0144,0.0555 -0.0414,0.110997 -0.0414,0.166501 -7e-4,3.258528 -0.004,6.517063 0.0134,9.775513 7e-4,0.13714 0.1783,0.27339 0.27349,0.41006 0.22931,3.21281 -1.35052,5.34826 -4.51842,5.76489 -1.50284,0.19766 -3.08407,0.14167 -4.58708,-0.084 -2.2924,-0.34416 -3.74856,-2.03911 -3.92525,-4.50598 -0.1561,-2.178978 -0.10021,-4.373548 -0.12551,-6.561377 -0.0175,-1.510691 0.0346,-3.024196 -0.0454,-4.531079 -0.0288,-0.542299 -0.35252,-1.068941 -0.60173,-1.668144 -0.0601,-0.06542 -0.10029,-0.0752 -0.10029,-0.0752 -0.17286,-0.051 -0.34571,-0.10198 -0.56397,-0.24885 -0.0292,-0.121611 -0.0137,-0.169445 0.004,-0.169919 1.65655,-0.04671 3.31314,-0.094 4.97006,-0.109731 0.0426,-3.7e-4 0.0885,0.347707 0.1328,0.533282 -0.14446,0.150572 -0.28894,0.301145 -0.53592,0.502992 -0.19727,0.233494 -0.29203,0.415702 -0.44244,0.652956 -0.0797,0.142686 -0.12473,0.230301 -0.12487,0.317986 -0.006,3.676984 -0.009,7.353972 -0.002,11.030944 1.9e-4,0.0892 0.12303,0.17821 0.23588,0.26931 0.0787,0.003 0.11024,0.004 0.14173,0.004 0.0247,0.13157 0.0494,0.26313 0.01,0.49674 0.0717,0.45762 0.20794,0.8132 0.34419,1.16879 0.77464,1.59639 2.17526,1.96526 3.78077,1.91787 1.40695,-0.0415 2.77368,-0.27068 3.43245,-1.70899 0.32428,-0.70805 0.52521,-1.5352 0.53813,-2.31251 0.0584,-3.514902 0.0483,-7.031387 0.0232,-10.547011 -0.0102,-1.417993 -0.39263,-1.801183 -1.77217,-2.108794 0.30461,-0.146661 0.62795,-0.232951 0.95186,-0.235246 1.70623,-0.0121 3.4126,-0.003 5.11894,-0.0013 z"
       id="path32"
       style="fill:#ffffff;stroke-width:0.185208" />
    <path
       fill="#9d2e47"
       opacity="1"
       stroke="none"
       d="m 34.746629,61.159171 c -0.123662,-0.04101 -0.247317,-0.08201 -0.416885,-0.224836 0.04221,-0.175239 0.129661,-0.311815 0.218519,-0.312726 1.734593,-0.01784 3.469459,-0.02863 5.203905,-0.009 0.143969,0.0017 0.285369,0.230819 0.427966,0.354285 -0.184093,0.09814 -0.368186,0.196274 -0.650055,0.330547 -0.173019,0.06712 -0.248262,0.09812 -0.323512,0.129116 0.07062,0.03242 0.141232,0.06485 0.211855,0.09728 0.0042,0.08452 0.0083,0.169039 -0.04676,0.321132 0.05285,0.307073 0.164941,0.546581 0.277067,0.786083 1.095374,1.802274 2.190748,3.604557 3.368519,5.542423 0.428099,-0.678776 0.800198,-1.25083 1.154265,-1.833839 0.780164,-1.284633 1.577926,-2.559725 2.316405,-3.868115 0.473753,-0.839344 0.312963,-1.152533 -0.673757,-1.546936 -0.06993,-0.06114 -0.07591,-0.147883 -0.01974,-0.200582 1.940365,-0.07412 3.824548,-0.09554 5.708745,-0.116965 -0.231525,0.122463 -0.454615,0.328258 -0.696066,0.352709 -0.958006,0.09701 -1.722315,0.518208 -2.236325,1.313403 -1.590841,2.461099 -3.159212,4.936803 -4.720156,7.416994 -0.121779,0.193487 -0.164339,0.46557 -0.165641,0.701554 -0.01008,1.820833 -0.0231,3.642163 0.0095,5.462543 0.02499,1.39308 0.33523,1.70148 1.687028,1.97146 0.208845,0.0417 0.382305,0.26055 0.572131,0.39747 -0.187831,0.10325 -0.37478,0.2944 -0.563633,0.29631 -2.160214,0.0218 -4.320834,0.0246 -6.480964,-5.5e-4 -0.201873,-0.002 -0.401114,-0.23016 -0.60158,-0.35329 0.179487,-0.11656 0.345646,-0.30023 0.540589,-0.33894 1.400238,-0.27805 1.720026,-0.57945 1.758876,-2.00404 0.04879,-1.78882 0.03682,-3.57987 0.01491,-5.369517 -0.0042,-0.318325 -0.128177,-0.667499 -0.292166,-0.946407 -1.313417,-2.233854 -2.622165,-4.471495 -3.996944,-6.667531 -0.380709,-0.608132 -0.978481,-1.080372 -1.537389,-1.649504 -0.06076,-0.03455 -0.04872,-0.03055 -0.04872,-0.03055 z"
       id="path34"
       style="fill:#ffffff;stroke-width:0.185208" />
    <path
       fill="#9e2f48"
       opacity="1"
       stroke="none"
       d="m 148.7414,60.890418 c -1.5752,0.319876 -1.8842,0.661315 -1.89112,2.299872 -0.0173,4.099802 -0.0168,8.199751 -0.004,12.299571 0.006,1.69669 0.2229,1.92547 1.90189,2.34149 0.16316,0.0405 0.289,0.23145 0.43217,0.35255 -0.14846,0.11671 -0.29596,0.33369 -0.44552,0.33511 -2.28086,0.0217 -4.56209,0.0218 -6.84293,-0.001 -0.13651,-0.001 -0.27064,-0.23924 -0.40588,-0.36707 0.12482,-0.10792 0.23298,-0.27321 0.37702,-0.31508 1.86921,-0.54352 1.93903,-0.60788 1.94471,-2.57789 0.0113,-3.914892 0.004,-7.829824 -5.5e-4,-11.744735 -3.8e-4,-0.338009 -0.0444,-0.675767 -0.0613,-1.013983 -0.0483,-0.965861 -0.58114,-1.433538 -1.51796,-1.530608 -0.31285,-0.03242 -0.83981,0.141879 -0.58965,-0.497014 0.4145,0.06271 0.71571,0.126077 1.01728,0.127749 1.72847,0.0096 3.4572,-0.0091 5.18533,0.01728 0.30139,0.0046 0.60019,0.178308 0.90019,0.273914 z"
       id="path36"
       style="fill:#ffffff;stroke-width:0.185208" />
    <path
       fill="#01719f"
       opacity="1"
       stroke="none"
       d="m 93.352204,9.3976228 c 0.132559,0.272258 0.33929,0.6152622 0.339864,0.9586112 0.01722,10.308767 0.01393,20.617568 0.01407,30.926362 4.9e-5,3.487708 5.6e-4,6.975414 7e-4,10.551837 -0.121695,0.03157 -0.323316,-0.0015 -0.349349,-0.08758 -0.06034,-0.199509 -0.04431,-0.424689 -0.04431,-0.639458 -7e-4,-13.694664 -1.89e-4,-27.389327 0.0014,-41.083991 2.1e-5,-0.1849592 0.01029,-0.3699182 0.03766,-0.6257822 z"
       id="path38"
       style="fill:#ffffff;stroke-width:0.185208" />
    <path
       fill="#941835"
       opacity="1"
       stroke="none"
       d="m 44.444394,39.959308 c -0.132692,-0.216688 -0.359289,-0.519485 -0.359926,-0.822758 -0.01722,-8.172592 -0.01134,-16.345232 -0.0049,-24.607699 0.0364,-0.09717 0.06853,-0.104508 0.1351,-0.01662 0.07029,0.296753 0.106148,0.498283 0.142009,0.699813 0.01582,0.491215 0.04438,0.982399 0.04564,1.473651 0.01995,7.729088 0.03633,15.458187 0.04214,23.273614 z"
       id="path40"
       style="fill:#ffffff;stroke-width:0.185208" />
    <path
       fill="#941835"
       opacity="1"
       stroke="none"
       d="m 158.0631,30.9025 c -5.14953,0.0526 -10.2854,0.06159 -15.42126,0.05608 -0.14884,-1.61e-4 -0.2975,-0.153823 -0.42952,-0.296004 5.14721,-0.07029 10.27768,-0.08048 15.51826,-0.02569 0.16988,0.09109 0.22964,0.117183 0.28942,0.143283 0.0189,0.02554 0.0378,0.05109 0.0431,0.122328 z"
       id="path42"
       style="fill:#ffffff;stroke-width:0.185208" />
    <path
       fill="#941835"
       opacity="1"
       stroke="none"
       d="m 57.784357,62.718701 c 0.104412,-0.151821 0.197729,-0.216991 0.363447,-0.332729 0,4.55419 0.0014,9.044515 -0.0097,13.534799 -1.89e-4,0.0928 -0.145887,0.18529 -0.282926,0.26178 -0.06678,-4.469831 -0.07433,-8.923518 -0.07079,-13.46385 z"
       id="path44"
       style="fill:#ffffff;stroke-width:0.185208" />
    <path
       fill="#941835"
       opacity="1"
       stroke="none"
       d="m 179.07768,75.896551 c -0.0993,0.20669 -0.18427,0.32701 -0.36228,0.57912 0,-0.78624 0,-1.44713 0,-2.10801 0,-3.517929 -0.005,-7.035877 0.008,-10.553762 0.001,-0.315378 0.11902,-0.630315 0.25085,-0.971882 0.0846,4.305107 0.10104,8.636644 0.10314,13.054534 z"
       id="path46"
       style="fill:#ffffff;stroke-width:0.185208" />
    <path
       fill="#941835"
       opacity="1"
       stroke="none"
       d="m 142.01867,47.559324 c -0.12339,-0.133729 -0.32864,-0.353464 -0.32977,-0.574229 -0.0195,-3.843119 -0.0169,-7.686377 -0.005,-11.529561 5.5e-4,-0.186166 0.13387,-0.371915 0.27678,-0.579368 0.0712,4.18455 0.071,8.390613 0.0577,12.683158 z"
       id="path48"
       style="fill:#ffffff;stroke-width:0.185208" />
    <path
       fill="#a64058"
       opacity="1"
       stroke="none"
       d="m 158.53224,62.261755 c 0.0948,-0.182207 0.18952,-0.364415 0.34024,-0.555703 -7e-4,1.435469 -0.0939,2.879716 -0.10606,4.324649 -0.0218,2.589195 0.005,5.178789 -0.0138,7.83829 -0.0567,0.0694 -0.0882,0.0687 -0.17052,-0.0204 -0.0505,-3.921223 -0.0502,-7.754052 -0.0498,-11.586887 z"
       id="path50"
       style="fill:#ffffff;stroke-width:0.185208" />
    <path
       fill="#941835"
       opacity="1"
       stroke="none"
       d="m 142.02129,30.337326 c -0.12156,0.0099 -0.33294,-0.06707 -0.33327,-0.144914 -0.0163,-3.762415 -0.0155,-7.524913 -0.006,-11.28737 1.8e-4,-0.06801 0.13588,-0.13566 0.26667,-0.188935 0.0658,3.854363 0.0733,7.694184 0.0721,11.621219 z"
       id="path52"
       style="fill:#ffffff;stroke-width:0.185208" />
    <path
       fill="#a64058"
       opacity="1"
       stroke="none"
       d="m 159.5308,61.15171 c -0.1202,-0.176431 -0.16607,-0.524539 -0.20865,-0.524138 -1.65692,0.01572 -3.31352,0.06302 -4.97006,0.109731 -0.0169,5.56e-4 -0.0325,0.04831 -0.0671,0.146892 -0.1391,0.07835 -0.28534,0.129874 -0.37537,0.07997 -0.2018,-0.111861 -0.37565,-0.274161 -0.56088,-0.415923 0.18956,-0.101736 0.37793,-0.289212 0.56885,-0.291829 1.71927,-0.02356 3.43899,-0.01443 5.15858,-0.01545 0.4913,-3.7e-4 0.98604,-0.03591 1.4721,0.01393 0.17744,0.01819 0.33426,0.237548 0.50049,0.365138 -0.14924,0.115947 -0.28231,0.284854 -0.4512,0.33647 -0.31945,0.09761 -0.65948,0.127834 -1.06682,0.195202 m 1.14833,-0.456771 c 0,0 -0.0239,0.014 0,0 m -6.87668,0.01428 c 0,0 -0.0146,-0.02283 0,0 z"
       id="path54"
       style="fill:#ffffff;stroke-width:0.185208" />
    <path
       fill="#941835"
       opacity="1"
       stroke="none"
       d="m 168.83749,72.733091 c -0.11629,-0.0528 -0.2939,-0.18906 -0.2946,-0.3262 -0.0166,-3.258453 -0.0144,-6.516988 -0.0134,-9.775516 3e-5,-0.0555 0.0269,-0.111001 0.0414,-0.166501 0.0685,0.03475 0.13696,0.0695 0.25,0.13711 0.0423,3.370988 0.04,6.709113 0.0166,10.131107 z"
       id="path56"
       style="fill:#ffffff;stroke-width:0.185208" />
    <path
       fill="#a64058"
       opacity="1"
       stroke="none"
       d="m 40.244716,60.977629 c -0.207179,-0.13421 -0.348579,-0.363401 -0.492548,-0.365029 -1.734446,-0.01962 -3.469312,-0.0088 -5.203905,0.009 -0.08886,9.1e-4 -0.176323,0.137488 -0.278152,0.286201 -0.255136,0.06485 -0.511994,0.10206 -0.733516,0.03025 -0.212786,-0.06898 -0.388976,-0.25088 -0.581238,-0.383168 0.188475,-0.105395 0.376194,-0.300918 0.565537,-0.302512 2.423876,-0.02037 4.848011,-0.01739 7.271957,-0.0013 0.140504,9.1e-4 0.279923,0.165187 0.329084,0.30345 -0.248675,0.152918 -0.406588,0.255825 -0.564494,0.358734 -0.08271,0.02505 -0.165431,0.0501 -0.312725,0.06441 z"
       id="path58"
       style="fill:#ffffff;stroke-width:0.185208" />
    <path
       fill="#921432"
       opacity="1"
       stroke="none"
       d="m 148.78955,60.899349 c -0.34816,-0.104537 -0.64696,-0.278237 -0.94835,-0.282844 -1.72813,-0.02642 -3.45685,-0.0077 -5.18533,-0.01728 -0.30156,-0.0017 -0.60277,-0.06504 -0.95492,-0.163341 2.32443,-0.09115 4.69965,-0.118863 7.14322,-0.03499 0.0714,0.226695 0.0745,0.341789 0.0775,0.456888 -0.028,0.01684 -0.056,0.03366 -0.13214,0.04157 z"
       id="path60"
       style="fill:#ffffff;stroke-width:0.185208" />
    <path
       fill="#a64058"
       opacity="1"
       stroke="none"
       d="m 61.25278,60.303113 c -0.213178,0.125211 -0.48972,0.27134 -0.770028,0.278948 -1.046955,0.02843 -2.095534,-0.0043 -3.142608,0.02204 -0.278152,0.007 -0.55307,0.142711 -0.845117,0.29357 -0.303681,0.05432 -0.591717,0.03439 -0.889,-0.06902 -0.05649,-0.123888 -0.103782,-0.1643 -0.151046,-0.204713 0.204799,-0.127281 0.408093,-0.362023 0.614628,-0.364912 1.70569,-0.02383 3.411975,-0.0047 5.183171,0.04408 z"
       id="path62"
       style="fill:#ffffff;stroke-width:0.185208" />
    <path
       fill="#a64058"
       opacity="1"
       stroke="none"
       d="m 181.09606,60.52966 c -1.42683,0.07076 -2.86238,0.05676 -4.2976,0.07262 -0.28861,0.0032 -0.57597,0.119791 -0.91911,0.258082 -0.14535,0.07591 -0.2355,0.07784 -0.38873,0.03112 -0.0631,-0.04866 -0.11233,-0.108322 -0.12338,-0.138996 -0.0541,-0.01628 -0.0972,-0.0019 -0.16206,0.03145 -0.0218,0.01891 -0.0648,0.05758 -0.0648,0.05758 0.0503,-0.197473 0.10211,-0.567862 0.1509,-0.567471 1.91348,0.0152 3.8267,0.06397 5.73986,0.111703 0.0193,5.55e-4 0.0375,0.04545 0.0648,0.143906 z"
       id="path64"
       style="fill:#ffffff;stroke-width:0.185208" />
    <path
       fill="#921432"
       opacity="1"
       stroke="none"
       d="m 51.496243,60.525195 c -1.877281,0.103259 -3.761464,0.124674 -5.77486,0.200491 -0.293818,-0.08783 -0.45843,-0.230062 -0.623035,-0.372292 2.130324,0.02999 4.260648,0.05998 6.397895,0.171801 z"
       id="path66"
       style="fill:#ffffff;stroke-width:0.185208" />
    <path
       fill="#921432"
       opacity="1"
       stroke="none"
       d="m 171.15036,60.527762 c -1.70238,0.07917 -3.40876,0.07006 -5.11499,0.08215 -0.32391,0.0023 -0.64724,0.08859 -1.0126,0.208665 -0.0737,0.07903 -0.10572,0.08553 -0.17236,-0.02152 -0.0266,-0.233433 -0.0185,-0.353318 -0.0105,-0.473206 1.96931,-0.01587 3.93864,-0.03508 5.90799,-0.04014 0.13268,-3.71e-4 0.26566,0.106254 0.40244,0.244042 z"
       id="path68"
       style="fill:#ffffff;stroke-width:0.185208" />
    <path
       fill="#921432"
       opacity="1"
       stroke="none"
       d="m 99.619594,60.322105 c -0.25036,0.113441 -0.55353,0.264931 -0.85969,0.271215 -1.31114,0.02694 -2.62326,0.0027 -3.934788,0.01732 -0.294049,0.0033 -0.587181,0.08843 -0.922012,0.208692 -0.07377,0.07962 -0.106267,0.08644 -0.176036,-0.01881 -0.04431,-0.229322 -0.05131,-0.346582 -0.05838,-0.463835 1.965576,-0.01445 3.931146,-0.02889 5.950886,-0.01457 z"
       id="path70"
       style="fill:#ffffff;stroke-width:0.185208" />
    <path
       fill="#921432"
       opacity="1"
       stroke="none"
       d="m 77.87302,60.315083 c 0.01176,0.13832 -0.05789,0.342412 -0.128261,0.342649 -1.802199,0.0062 -3.604461,-0.0083 -5.406646,-0.02649 -0.03143,-3.7e-4 -0.06188,-0.09087 -0.09771,-0.204702 1.847055,-0.09048 3.698975,-0.115573 5.63262,-0.11146 z"
       id="path72"
       style="fill:#ffffff;stroke-width:0.185208" />
    <path
       fill="#921432"
       opacity="1"
       stroke="none"
       d="m 197.14344,60.312631 c -0.14971,0.114139 -0.37989,0.272934 -0.61451,0.279791 -1.49303,0.04365 -2.98706,0.05589 -4.48083,0.06703 -0.0582,3.7e-4 -0.11742,-0.115422 -0.18701,-0.244132 0.10559,-0.0831 0.22202,-0.09916 0.44197,-0.07054 0.16657,0.02435 0.22962,0.0041 0.29265,-0.0163 1.4884,-0.01382 2.97682,-0.02763 4.54773,-0.01585 z"
       id="path74"
       style="fill:#ffffff;stroke-width:0.185208" />
    <path
       fill="#921432"
       opacity="1"
       stroke="none"
       d="m 86.999606,60.329293 c -0.275716,0.118237 -0.615496,0.246376 -0.96138,0.265751 -1.252706,0.0702 -2.50747,0.10388 -3.803016,0.223902 -0.0737,0.07793 -0.105826,0.0833 -0.173586,-0.023 -0.04158,-0.22713 -0.04746,-0.342604 -0.05341,-0.45807 1.641507,-0.0162 3.283021,-0.0324 4.991392,-0.0086 z"
       id="path76"
       style="fill:#ffffff;stroke-width:0.185208" />
    <path
       fill="#a63d55"
       opacity="1"
       stroke="none"
       d="m 89.779488,4.2288098 c -1.243088,0.0093 -2.463223,-0.06059 -3.683813,-0.121151 -0.399308,-0.01981 -0.79982,-0.0153 -1.294216,-0.03123 0.0616,-0.106045 0.216279,-0.284161 0.3738,-0.286688 1.342894,-0.02154 2.686677,-0.02669 4.029144,0.0063 0.20209,0.005 0.398706,0.232571 0.575085,0.432797 z"
       id="path78"
       style="fill:#ffffff;stroke-width:0.185208" />
    <path
       fill="#a64058"
       opacity="1"
       stroke="none"
       d="m 159.08148,75.537201 c -0.13659,-0.28819 -0.27283,-0.64378 -0.35129,-1.03451 0.15574,0.29895 0.25369,0.63304 0.35129,1.03451 z"
       id="path80"
       style="fill:#ffffff;stroke-width:0.185208" />
    <path
       fill="#a63d55"
       opacity="1"
       stroke="none"
       d="m 89.486104,51.972084 c 0.0161,-0.2159 0.0827,-0.407839 0.210056,-0.617933 -0.01267,0.201858 -0.08612,0.421878 -0.210056,0.617933 z"
       id="path82"
       style="fill:#ffffff;stroke-width:0.185208" />
    <path
       fill="#a64058"
       opacity="1"
       stroke="none"
       d="m 39.644382,62.565946 c -0.107786,-0.174407 -0.219912,-0.413914 -0.283017,-0.658245 0.12558,0.194507 0.202132,0.393829 0.283017,0.658245 z"
       id="path84"
       style="fill:#ffffff;stroke-width:0.185208" />
    <path
       fill="#bc6b7e"
       opacity="1"
       stroke="none"
       d="m 45.04589,60.40293 c 0.217063,0.09269 0.381675,0.234923 0.619318,0.375457 0.07304,-0.0017 0.07905,0.08504 0.08028,0.128497 -0.385742,0.08307 -0.83741,0.22059 -0.699601,-0.503954 z"
       id="path86"
       style="fill:#ffffff;stroke-width:0.185208" />
    <path
       fill="#9d2e47"
       opacity="1"
       stroke="none"
       d="m 40.623213,60.927139 c 0.09213,-0.116829 0.250047,-0.219737 0.474047,-0.315354 -0.09204,0.114615 -0.250152,0.221949 -0.474047,0.315354 z"
       id="path88"
       style="fill:#ffffff;stroke-width:0.185208" />
    <path
       fill="#9e2f49"
       opacity="1"
       stroke="none"
       d="m 164.79391,60.301304 c 0.0379,0.14244 0.0299,0.262325 0.0136,0.472178 -0.0253,-0.104932 -0.0425,-0.299834 -0.0136,-0.472178 z"
       id="path90"
       style="fill:#ffffff;stroke-width:0.185208" />
    <path
       fill="#9f314a"
       opacity="1"
       stroke="none"
       d="m 81.949659,60.34273 c 0.06447,0.110621 0.07041,0.226094 0.07,0.428203 -0.04711,-0.08336 -0.08782,-0.253361 -0.07,-0.428203 z"
       id="path92"
       style="fill:#ffffff;stroke-width:0.185208" />
    <path
       fill="#9c2c46"
       opacity="1"
       stroke="none"
       d="m 44.381163,15.148049 c -0.06048,-0.137537 -0.09631,-0.339067 -0.128548,-0.604258 0.05348,0.137645 0.103292,0.338954 0.128548,0.604258 z"
       id="path94"
       style="fill:#ffffff;stroke-width:0.185208" />
    <path
       fill="#9e2f48"
       opacity="1"
       stroke="none"
       d="m 148.98141,60.853436 c -0.0628,-0.110753 -0.0658,-0.225847 -0.0629,-0.4273 0.0449,0.08341 0.0837,0.253182 0.0629,0.4273 z"
       id="path96"
       style="fill:#ffffff;stroke-width:0.185208" />
    <path
       fill="#9f314a"
       opacity="1"
       stroke="none"
       d="m 93.610623,60.344141 c 0.0651,0.109798 0.07215,0.227058 0.07275,0.432483 -0.04788,-0.08289 -0.08937,-0.253961 -0.07275,-0.432483 z"
       id="path98"
       style="fill:#ffffff;stroke-width:0.185208" />
    <path
       fill="#a64058"
       opacity="1"
       stroke="none"
       d="m 39.450685,61.50118 c -0.102886,-0.0098 -0.173502,-0.0422 -0.244118,-0.07463 0.07525,-0.031 0.150493,-0.06199 0.27055,-0.09476 0.05474,0.05374 0.04172,0.103241 -0.02646,0.169388 z"
       id="path100"
       style="fill:#ffffff;stroke-width:0.185208" />
    <path
       fill="#a64058"
       opacity="1"
       stroke="none"
       d="m 154.91207,61.176658 c 7e-4,-0.02059 0.0409,-0.0108 0.0491,-0.0044 0.008,0.0064 -0.0498,0.02496 -0.0491,0.0044 z"
       id="path102"
       style="fill:#ffffff;stroke-width:0.185208" />
    <path
       fill="#a64058"
       opacity="1"
       stroke="none"
       d="m 34.744774,61.173961 c 0.0021,-0.0148 -0.01015,-0.0188 -0.01372,-0.02249 -0.0035,-0.0037 0.0119,0.03728 0.01372,0.02249 z"
       id="path104"
       style="fill:#ffffff;stroke-width:0.185208" />
    <path
       fill="#a64058"
       opacity="1"
       stroke="none"
       d="m 176.40839,61.070742 c 0.0413,-0.02767 0.11893,-0.008 0.22843,0.06465 -0.0428,0.02952 -0.11742,0.0062 -0.22843,-0.06465 z"
       id="path106"
       style="fill:#ffffff;stroke-width:0.185208" />
    <path
       fill="#a64058"
       opacity="1"
       stroke="none"
       d="m 175.44747,60.875967 c -0.0697,0.03567 -0.15939,0.03821 -0.27803,0.0032 -0.029,-0.0376 0.0139,-0.07626 0.0732,-0.08837 0.0593,-0.0121 0.13566,-0.0076 0.13566,-0.0076 0,0 0.0492,0.05966 0.0692,0.0928 z"
       id="path108"
       style="fill:#ffffff;stroke-width:0.185208" />
    <path
       fill="#9e2f49"
       opacity="1"
       stroke="none"
       d="m 55.457466,60.673993 c 0.0448,-0.0096 0.09205,0.03078 0.106029,0.09636 -0.0567,0.0013 -0.08012,-0.02248 -0.106029,-0.09636 z"
       id="path110"
       style="fill:#ffffff;stroke-width:0.185208" />
    <path
       fill="#9c2b44"
       opacity="1"
       stroke="none"
       d="m 158.01176,30.721485 c -0.0515,0.03259 -0.1113,0.0065 -0.19678,-0.06226 0.0457,-0.02724 0.11712,-0.01184 0.19678,0.06226 z"
       id="path112"
       style="fill:#ffffff;stroke-width:0.185208" />
    <path
       fill="#9e2f49"
       opacity="1"
       stroke="none"
       d="m 192.54917,60.302915 c -0.0165,0.04589 -0.0795,0.06621 -0.1903,0.06566 0.0161,-0.04432 0.0799,-0.06777 0.1903,-0.06566 z"
       id="path114"
       style="fill:#ffffff;stroke-width:0.185208" />
    <path
       fill="#941835"
       opacity="1"
       stroke="none"
       d="m 158.47659,62.316802 c 0.0553,3.777788 0.055,7.610617 0.0583,11.529839 -0.062,-0.003 -0.18489,-0.0917 -0.18507,-0.18091 -0.007,-3.676971 -0.004,-7.353959 0.002,-11.030943 1.3e-4,-0.08768 0.0452,-0.1753 0.12486,-0.317986 z"
       id="path118"
       style="fill:#ffffff;stroke-width:0.185208" />
    <path
       fill="#9e2f49"
       opacity="1"
       stroke="none"
       d="m 160.66719,60.701938 c -0.012,0.007 0.0119,-0.007 0,0 z"
       id="path120"
       style="fill:#ffffff;stroke-width:0.185208" />
    <path
       fill="#9e2f49"
       opacity="1"
       stroke="none"
       d="m 153.79515,60.697811 c -0.007,-0.01141 0.007,0.01141 0,0 z"
       id="path122"
       style="fill:#ffffff;stroke-width:0.185208" />
    <path
       fill="#9e2f49"
       opacity="1"
       stroke="none"
       d="m 175.36724,60.75249 c 0.0111,0.03067 -0.0654,0.02617 -0.1028,0.01935 0.006,-0.02122 0.0487,-0.03562 0.1028,-0.01935 z"
       id="path124"
       style="fill:#ffffff;stroke-width:0.185208" />
  </g>
</svg>
